<?xml version="1.0" encoding="iso-8859-1"?>
<!-- Generator: Adobe Illustrator 25.1.0, SVG Export Plug-In . SVG Version: 6.00 Build 0)  -->
<svg version="1.1" id="Layer_1" xmlns="http://www.w3.org/2000/svg" xmlns:xlink="http://www.w3.org/1999/xlink" x="0px" y="0px"
	 width="250px" height="250px" viewBox="0 0 250 250" enable-background="new 0 0 250 250" xml:space="preserve">
<path fill="none" stroke="#000000" stroke-width="2" stroke-miterlimit="10" d="M132.656,190.713
	c0.584,0.063,7.004,0.648,10.992-4.125c3.297-3.945,4.457-10.981,0.029-15.144c-4.001-3.761-10.914-3.625-15.191,0.853"/>
<ellipse fill="#FFFFFF" stroke="#000000" stroke-miterlimit="10" cx="79.34" cy="102.319" rx="31.72" ry="31.9"/>
<ellipse fill="#FFFFFF" stroke="#000000" stroke-miterlimit="10" cx="154.861" cy="102.27" rx="34.588" ry="34.229"/>
<ellipse stroke="#000000" stroke-miterlimit="10" cx="82.208" cy="105.545" rx="16.667" ry="16.487"/>
<ellipse stroke="#000000" stroke-miterlimit="10" cx="158.91" cy="107.875" rx="18.1" ry="18.459"/>
<ellipse fill="#FFFFFF" stroke="#000000" stroke-miterlimit="10" cx="87.047" cy="99.093" rx="4.659" ry="4.301"/>
<ellipse fill="#FFFFFF" stroke="#000000" stroke-miterlimit="10" cx="166.079" cy="100.527" rx="5.556" ry="5.376"/>
<path stroke="#000000" stroke-miterlimit="10" d="M39.735,47.839c-1.704-7.039-1.394-20.636,7.885-25.806
	c4.221-2.352,8.624-2.028,11.828-1.792c5.963,0.439,10.043,2.612,14.286,4.794C95.478,36.218,102.35,37.769,102.1,41.746
	c-0.139,2.206-2.4,4.079-4.301,4.659c-3.724,1.137-6.785-2.471-12.545-5.735c-4.223-2.393-12.841-7.276-20.072-5.018
	c-3.234,1.01-7.054,4.855-14.695,12.545c-3.011,3.03-5.343,5.633-7.527,5.018C40.935,52.644,40.158,49.588,39.735,47.839z"/>
<path stroke="#000000" stroke-miterlimit="10" d="M132.681,46.114c1.809-7.923,16.815-14.474,29.781-12.904
	c18.895,2.287,33.939,21.877,30.966,28.279c-0.881,1.897-3.527,3.032-5.624,2.929c-3.889-0.191-5.548-4.622-9.863-9.642
	c-3.164-3.681-9.621-11.193-17.189-11.515c-3.385-0.144-8.281,2.181-18.074,6.83c-3.859,1.832-6.934,3.492-8.781,2.174
	C132.194,51.049,132.288,47.837,132.681,46.114z"/>
<path stroke="#000000" stroke-miterlimit="10" d="M37.226,73.645"/>
<path fill="#FFFFFF" stroke="#000000" stroke-width="2" stroke-miterlimit="10" d="M125.398,138.161
	c0.175,8.73,0.845,15.507,1.434,20.072c0.36,2.793,0.827,5.827,2.509,9.319c1.638,3.401,3.019,4.31,4.66,6.81
	c3.153,4.805,6.172,13.691,2.867,17.204c-3.089,3.283-7.177-0.74-20.43,1.075c-4.918,0.674-7.613,1.674-12.186,0.717
	c-2.564-0.536-6.955-1.455-8.961-5.018c-3.324-5.906,2.96-13.659,3.226-13.979c1.476-1.773,3.954-4.751,7.527-4.66
	c3.655,0.093,7.194,3.367,8.602,8.244"/>
<path stroke="#000000" stroke-width="2" stroke-miterlimit="10" d="M128.825,228.17c0,2.945-2.292,5.332-5.119,5.332
	s-5.119-2.387-5.119-5.332c0-2.945,2.292-5.332,5.119-5.332c0.975,0,1.719,0.293,2.016,0.429
	C127.512,224.09,128.825,226.062,128.825,228.17z"/>
<g>
</g>
<g>
</g>
<g>
</g>
<g>
</g>
<g>
</g>
</svg>
